<svg version="1.1" id="Layer_1" xmlns="http://www.w3.org/2000/svg" xmlns:xlink="http://www.w3.org/1999/xlink" x="0px" y="0px"
	 width="100%" viewBox="0 0 1024 1024" enable-background="new 0 0 1024 1024" xml:space="preserve">
<path fill="#000000" opacity="1.000000" stroke="none" 
	d="
M414.467041,578.718140 
	C405.463501,582.800903 396.220612,583.988953 386.887024,584.147888 
	C372.398895,584.394531 357.901886,584.098877 343.412262,584.297363 
	C339.111084,584.356323 337.597687,582.999573 337.607574,578.579468 
	C337.725677,525.774414 337.733154,472.968750 337.589935,420.163757 
	C337.577759,415.678009 339.041504,414.500214 343.328735,414.564850 
	C358.150909,414.788300 372.997742,414.173126 387.799835,414.763580 
	C416.735199,415.917877 439.897369,429.639771 444.943542,463.720703 
	C446.225250,472.377014 445.554321,481.339813 445.569855,490.162170 
	C445.593353,503.486694 445.936920,516.838318 445.234192,530.130249 
	C444.092560,551.722900 435.238800,568.876282 414.467041,578.718140 
M396.857422,550.502686 
	C406.882996,545.439697 410.222015,536.255554 410.500031,526.103943 
	C410.996429,507.978333 410.915894,489.823608 410.546173,471.691864 
	C410.260193,457.667694 403.971680,449.279633 392.626556,446.765869 
	C387.581543,445.648010 382.345551,446.271515 377.208527,445.970642 
	C372.653931,445.703857 371.223206,447.301300 371.250458,451.941711 
	C371.438019,483.892426 371.348846,515.844788 371.349823,547.796570 
	C371.349823,548.628601 371.392975,549.461670 371.363037,550.292419 
	C371.280884,552.573181 372.328339,553.631165 374.642487,553.643982 
	C381.951141,553.684570 389.317017,554.233276 396.857422,550.502686 
z"/>
<path fill="#000000" opacity="1.000000" stroke="none" 
	d="
M323.694092,549.313232 
	C319.662842,565.603333 309.864410,576.484131 294.916382,582.628967 
	C278.240875,589.483948 261.300018,589.038269 244.939926,581.971985 
	C225.445740,573.552002 216.452164,557.282715 215.835373,536.840698 
	C215.087540,512.055237 214.943817,487.203766 215.851578,462.428955 
	C216.871613,434.589935 234.157791,417.687988 260.964966,413.700989 
	C277.984741,411.169617 293.788055,414.455688 307.498810,425.214508 
	C319.067230,434.292236 324.914856,446.752930 325.202209,461.169067 
	C325.713135,486.799377 325.404388,512.447510 325.278320,538.087402 
	C325.260559,541.699280 324.339691,545.306641 323.694092,549.313232 
M290.659607,511.500061 
	C290.656433,496.683777 290.847473,481.863922 290.573456,467.052643 
	C290.421844,458.858276 288.632050,451.014618 280.613739,446.565186 
	C266.812775,438.906952 250.643295,448.278931 250.438751,464.384338 
	C250.132217,488.519287 250.251007,512.661682 250.409866,536.799500 
	C250.478928,547.290527 257.819916,555.592102 267.275726,556.605896 
	C278.867188,557.848816 287.129822,552.155151 289.692871,540.850464 
	C291.815247,531.489624 290.200470,521.947937 290.659607,511.500061 
z"/>
<path fill="#000000" opacity="1.000000" stroke="none" 
	d="
M689.707764,548.835449 
	C703.086121,505.759308 716.431702,463.087067 729.567749,420.350342 
	C730.850281,416.177704 732.573425,414.333191 737.133606,414.549194 
	C744.779480,414.911316 752.462646,414.855621 760.114807,414.567596 
	C764.240662,414.412323 766.160645,415.701904 767.476990,419.822357 
	C781.286133,463.046814 795.321350,506.199005 809.319336,549.363037 
	C812.948364,560.553406 816.665710,571.715149 820.233643,582.559082 
	C818.877197,584.642761 817.242249,584.205627 815.833984,584.213501 
	C806.505371,584.265381 797.173035,584.105286 787.849243,584.325500 
	C784.340332,584.408386 782.756287,583.000854 781.876282,579.800171 
	C779.454041,570.990662 776.741882,562.260315 774.362488,553.439697 
	C773.400757,549.874329 771.747925,548.213440 767.783447,548.279907 
	C754.793274,548.497803 741.796021,548.468506 728.804382,548.304749 
	C725.468567,548.262756 724.120605,549.625793 723.305115,552.642822 
	C720.792358,561.939758 718.032410,571.169678 715.429993,580.442871 
	C714.910950,582.292480 714.440308,584.144775 712.104004,584.155029 
	C701.177124,584.202820 690.249878,584.176331 678.394592,584.176331 
	C682.335938,571.899536 685.976257,560.560425 689.707764,548.835449 
M739.809937,495.092651 
	C738.112000,501.173492 736.453796,507.265839 734.699219,513.330322 
	C733.815186,516.386047 734.808594,517.684937 738.013733,517.650208 
	C745.177002,517.572510 752.343323,517.546692 759.505310,517.674988 
	C763.380310,517.744385 763.958252,516.219788 762.921753,512.741882 
	C758.239258,497.029602 753.750977,481.259430 749.192810,465.510101 
	C748.893677,465.462463 748.594482,465.414825 748.295349,465.367188 
	C745.559631,475.019501 742.823914,484.671844 739.809937,495.092651 
z"/>
<path fill="#000000" opacity="1.000000" stroke="none" 
	d="
M457.650360,521.999878 
	C457.650482,488.009918 457.748322,454.519348 457.545502,421.030609 
	C457.515320,416.044739 458.824554,414.426697 463.954529,414.529755 
	C479.943329,414.850861 495.943878,414.531860 511.937317,414.700836 
	C521.322083,414.800018 530.455017,416.660431 539.083557,420.415710 
	C550.498657,425.383789 558.582214,433.810455 562.824036,445.462006 
	C568.632874,461.418091 569.127991,477.722931 563.722290,493.871796 
	C557.177246,513.424255 542.907532,523.578491 522.821533,526.411743 
	C514.851318,527.536011 506.878693,527.292847 498.895264,527.342102 
	C491.358185,527.388611 491.352875,527.360535 491.350281,535.119629 
	C491.345459,549.615295 491.200684,564.113281 491.435059,578.605103 
	C491.505951,582.986328 490.137085,584.496826 485.744781,584.327881 
	C478.091492,584.033508 470.415863,584.097168 462.756195,584.282043 
	C458.824158,584.376953 457.564026,582.837830 457.592224,578.982483 
	C457.730042,560.155823 457.652222,541.327637 457.650360,521.999878 
M530.848145,463.600220 
	C529.178284,454.127655 524.058472,448.001221 514.302246,446.067291 
	C507.682800,444.755127 501.043793,445.585541 494.415436,445.445343 
	C491.640137,445.386627 491.352753,447.416748 491.354279,449.586304 
	C491.364288,463.892975 491.422760,478.200226 491.304840,492.505951 
	C491.277588,495.814423 492.644440,496.954987 495.759277,496.866516 
	C500.912842,496.720062 506.082672,496.932678 511.224274,496.630493 
	C518.886230,496.180115 524.907410,492.794952 528.481506,485.768799 
	C531.931335,478.986786 532.358765,471.797302 530.848145,463.600220 
z"/>
<path fill="#000000" opacity="1.000000" stroke="none" 
	d="
M132.000122,414.647827 
	C145.111603,415.045624 157.770905,413.663269 170.312531,416.475525 
	C189.034912,420.673767 201.136261,431.590393 205.423599,450.435486 
	C208.682175,464.758636 208.628983,479.165436 204.470810,493.337067 
	C198.278915,514.440063 182.644028,524.286255 162.130081,526.283325 
	C155.180298,526.959900 148.162033,527.122925 141.174088,527.140869 
	C137.460373,527.150391 136.256912,528.464722 136.291580,532.126221 
	C136.438263,547.623169 136.216354,563.124451 136.445923,578.619385 
	C136.511002,583.013245 135.131287,584.496887 130.742538,584.326782 
	C123.088028,584.030212 115.408768,584.068298 107.750252,584.303528 
	C103.730408,584.427002 102.644806,582.838074 102.651276,579.025513 
	C102.741516,525.864563 102.740204,472.703308 102.656967,419.542267 
	C102.651276,415.908905 103.766129,414.498688 107.504005,414.593170 
	C115.498070,414.795227 123.500885,414.650604 132.000122,414.647827 
M142.700546,494.747833 
	C146.531464,494.720337 150.366211,494.792175 154.192474,494.644257 
	C161.765732,494.351379 167.104141,490.690155 169.916199,483.622803 
	C172.853836,476.239838 172.614029,468.579163 170.928909,461.047821 
	C169.117935,452.954041 163.915039,447.861053 155.511520,446.864014 
	C150.908142,446.317780 146.207169,446.652313 141.567047,446.339691 
	C137.702591,446.079376 136.233475,447.513062 136.288208,451.477295 
	C136.462982,464.134369 136.501923,476.798218 136.266220,489.453339 
	C136.187027,493.705627 137.751968,495.250153 142.700546,494.747833 
z"/>
<path fill="#000000" opacity="1.000000" stroke="none" 
	d="
M813.758179,468.119751 
	C805.031494,450.510193 796.453064,433.242554 787.938293,416.103027 
	C789.595703,414.133728 791.373779,414.692139 792.920898,414.682556 
	C802.753052,414.621643 812.589600,414.809631 822.416382,414.572815 
	C826.178467,414.482147 828.027832,415.842712 829.443970,419.286224 
	C837.357544,438.529053 845.486816,457.683319 853.576355,476.853516 
	C854.399109,478.803314 855.006592,480.906830 856.943665,482.746246 
	C862.366272,472.989716 866.131836,462.679474 870.623352,452.718842 
	C875.687256,441.488434 880.517700,430.149811 885.256470,418.777710 
	C886.531067,415.718872 888.258118,414.520996 891.620300,414.579498 
	C902.584473,414.770294 913.554016,414.651031 924.195435,414.651031 
	C925.659851,417.073547 924.199158,418.370270 923.526855,419.778320 
	C907.958252,452.386688 892.393860,484.997223 876.737427,517.563477 
	C875.025146,521.125183 874.331787,524.693237 874.368835,528.623596 
	C874.528625,545.619629 874.515808,562.617310 874.539001,579.614441 
	C874.540833,580.926697 874.335449,582.239136 874.177490,584.139771 
	C863.426941,584.139771 852.824829,584.270020 842.229431,584.059814 
	C839.078064,583.997314 839.703003,581.027893 839.697388,578.989380 
	C839.648499,561.324219 839.622986,543.658752 839.704651,525.993835 
	C839.719666,522.748291 839.157654,519.804871 837.702942,516.874512 
	C829.707581,500.768311 821.826721,484.605225 813.758179,468.119751 
z"/>
<path fill="#000000" opacity="1.000000" stroke="none" 
	d="
M612.257019,501.000000 
	C612.264221,516.488159 612.430176,531.478943 612.183411,546.462952 
	C612.106445,551.137817 613.315979,552.848267 618.281616,552.756958 
	C634.430115,552.459961 650.587524,552.625061 666.741333,552.670837 
	C668.674500,552.676270 670.727417,552.176208 673.032532,553.738342 
	C670.130005,563.096680 667.194458,572.580627 664.243408,582.059814 
	C663.617615,584.070068 661.933472,584.238770 660.212463,584.239014 
	C633.733398,584.243652 607.254211,584.206604 580.775391,584.280457 
	C577.334961,584.290039 576.592407,582.616211 576.628052,579.631897 
	C576.725342,571.472900 576.655518,563.311890 576.655457,555.151672 
	C576.655396,510.520172 576.652405,465.888641 576.661133,421.257141 
	C576.662354,414.738586 576.689087,414.734619 583.292786,414.731018 
	C590.786865,414.726929 598.293518,414.994751 605.770569,414.638306 
	C610.724976,414.402130 612.425171,415.909760 612.378967,421.063385 
	C612.141846,447.540466 612.261475,474.020813 612.257019,501.000000 
z"/>
</svg>